<mxfile host="app.diagrams.net" modified="2024-04-26T12:41:30.511Z" agent="Mozilla/5.0 (Windows NT 10.0; Win64; x64) AppleWebKit/537.36 (KHTML, like Gecko) Chrome/124.0.0.0 Safari/537.36" etag="g-rRzgHb_LHDzqP_DVJh" version="24.2.7" type="github">
  <diagram name="第 1 页" id="HdoQyLCfgDcBrx1Kk_PP">
    <mxGraphModel dx="1290" dy="530" grid="1" gridSize="10" guides="1" tooltips="1" connect="1" arrows="1" fold="1" page="1" pageScale="1" pageWidth="827" pageHeight="1169" math="0" shadow="0">
      <root>
        <mxCell id="0" />
        <mxCell id="1" parent="0" />
        <mxCell id="Jq1FWWVzuBtE5Re9_JTs-1" value="&lt;font style=&quot;font-size: 18px;&quot;&gt;题目表&lt;/font&gt;" style="rounded=0;whiteSpace=wrap;html=1;" vertex="1" parent="1">
          <mxGeometry x="294" y="230" width="120" height="60" as="geometry" />
        </mxCell>
        <mxCell id="Jq1FWWVzuBtE5Re9_JTs-2" value="&lt;font style=&quot;font-size: 14px;&quot;&gt;选项A&lt;/font&gt;" style="ellipse;whiteSpace=wrap;html=1;" vertex="1" parent="1">
          <mxGeometry x="390" y="100" width="110" height="70" as="geometry" />
        </mxCell>
        <mxCell id="Jq1FWWVzuBtE5Re9_JTs-3" value="&lt;font style=&quot;font-size: 14px;&quot;&gt;选项B&lt;/font&gt;" style="ellipse;whiteSpace=wrap;html=1;" vertex="1" parent="1">
          <mxGeometry x="460" y="170" width="110" height="70" as="geometry" />
        </mxCell>
        <mxCell id="Jq1FWWVzuBtE5Re9_JTs-4" value="&lt;font style=&quot;font-size: 14px;&quot;&gt;选项C&lt;/font&gt;" style="ellipse;whiteSpace=wrap;html=1;" vertex="1" parent="1">
          <mxGeometry x="480" y="250" width="110" height="70" as="geometry" />
        </mxCell>
        <mxCell id="Jq1FWWVzuBtE5Re9_JTs-5" value="&lt;font style=&quot;font-size: 14px;&quot;&gt;选项D&lt;/font&gt;" style="ellipse;whiteSpace=wrap;html=1;" vertex="1" parent="1">
          <mxGeometry x="420" y="360" width="110" height="70" as="geometry" />
        </mxCell>
        <mxCell id="Jq1FWWVzuBtE5Re9_JTs-6" value="&lt;font style=&quot;font-size: 14px;&quot;&gt;答案&lt;/font&gt;" style="ellipse;whiteSpace=wrap;html=1;" vertex="1" parent="1">
          <mxGeometry x="270" y="370" width="110" height="70" as="geometry" />
        </mxCell>
        <mxCell id="Jq1FWWVzuBtE5Re9_JTs-7" value="&lt;font style=&quot;font-size: 14px;&quot;&gt;解析&lt;/font&gt;" style="ellipse;whiteSpace=wrap;html=1;" vertex="1" parent="1">
          <mxGeometry x="140" y="330" width="110" height="70" as="geometry" />
        </mxCell>
        <mxCell id="Jq1FWWVzuBtE5Re9_JTs-8" value="&lt;font style=&quot;font-size: 14px;&quot;&gt;分组&lt;/font&gt;" style="ellipse;whiteSpace=wrap;html=1;" vertex="1" parent="1">
          <mxGeometry x="80" y="225" width="110" height="70" as="geometry" />
        </mxCell>
        <mxCell id="Jq1FWWVzuBtE5Re9_JTs-9" value="&lt;font style=&quot;font-size: 14px;&quot;&gt;题目名称&lt;/font&gt;" style="ellipse;whiteSpace=wrap;html=1;" vertex="1" parent="1">
          <mxGeometry x="80" y="100" width="110" height="70" as="geometry" />
        </mxCell>
        <mxCell id="Jq1FWWVzuBtE5Re9_JTs-10" value="&lt;font style=&quot;font-size: 14px;&quot;&gt;题目类型&lt;/font&gt;" style="ellipse;whiteSpace=wrap;html=1;" vertex="1" parent="1">
          <mxGeometry x="220" y="70" width="110" height="70" as="geometry" />
        </mxCell>
        <mxCell id="Jq1FWWVzuBtE5Re9_JTs-11" value="" style="endArrow=none;html=1;rounded=0;entryX=0.5;entryY=1;entryDx=0;entryDy=0;" edge="1" parent="1" source="Jq1FWWVzuBtE5Re9_JTs-6" target="Jq1FWWVzuBtE5Re9_JTs-1">
          <mxGeometry width="50" height="50" relative="1" as="geometry">
            <mxPoint x="160" y="510" as="sourcePoint" />
            <mxPoint x="210" y="460" as="targetPoint" />
          </mxGeometry>
        </mxCell>
        <mxCell id="Jq1FWWVzuBtE5Re9_JTs-12" value="" style="endArrow=none;html=1;rounded=0;entryX=0.573;entryY=0.987;entryDx=0;entryDy=0;entryPerimeter=0;exitX=0.411;exitY=-0.006;exitDx=0;exitDy=0;exitPerimeter=0;" edge="1" parent="1" source="Jq1FWWVzuBtE5Re9_JTs-5" target="Jq1FWWVzuBtE5Re9_JTs-1">
          <mxGeometry width="50" height="50" relative="1" as="geometry">
            <mxPoint x="344" y="380" as="sourcePoint" />
            <mxPoint x="364" y="300" as="targetPoint" />
          </mxGeometry>
        </mxCell>
        <mxCell id="Jq1FWWVzuBtE5Re9_JTs-13" value="" style="endArrow=none;html=1;rounded=0;entryX=1;entryY=1;entryDx=0;entryDy=0;" edge="1" parent="1" source="Jq1FWWVzuBtE5Re9_JTs-4" target="Jq1FWWVzuBtE5Re9_JTs-1">
          <mxGeometry width="50" height="50" relative="1" as="geometry">
            <mxPoint x="475" y="370" as="sourcePoint" />
            <mxPoint x="373" y="299" as="targetPoint" />
          </mxGeometry>
        </mxCell>
        <mxCell id="Jq1FWWVzuBtE5Re9_JTs-14" value="" style="endArrow=none;html=1;rounded=0;exitX=0.091;exitY=0.834;exitDx=0;exitDy=0;exitPerimeter=0;" edge="1" parent="1" source="Jq1FWWVzuBtE5Re9_JTs-3">
          <mxGeometry width="50" height="50" relative="1" as="geometry">
            <mxPoint x="490" y="297" as="sourcePoint" />
            <mxPoint x="420" y="260" as="targetPoint" />
          </mxGeometry>
        </mxCell>
        <mxCell id="Jq1FWWVzuBtE5Re9_JTs-15" value="" style="endArrow=none;html=1;rounded=0;exitX=0.211;exitY=1.011;exitDx=0;exitDy=0;exitPerimeter=0;" edge="1" parent="1" source="Jq1FWWVzuBtE5Re9_JTs-2" target="Jq1FWWVzuBtE5Re9_JTs-1">
          <mxGeometry width="50" height="50" relative="1" as="geometry">
            <mxPoint x="480" y="238" as="sourcePoint" />
            <mxPoint x="430" y="270" as="targetPoint" />
          </mxGeometry>
        </mxCell>
        <mxCell id="Jq1FWWVzuBtE5Re9_JTs-16" value="" style="endArrow=none;html=1;rounded=0;exitX=0.727;exitY=1;exitDx=0;exitDy=0;exitPerimeter=0;entryX=0.5;entryY=0;entryDx=0;entryDy=0;" edge="1" parent="1" source="Jq1FWWVzuBtE5Re9_JTs-10" target="Jq1FWWVzuBtE5Re9_JTs-1">
          <mxGeometry width="50" height="50" relative="1" as="geometry">
            <mxPoint x="423" y="181" as="sourcePoint" />
            <mxPoint x="384" y="240" as="targetPoint" />
          </mxGeometry>
        </mxCell>
        <mxCell id="Jq1FWWVzuBtE5Re9_JTs-17" value="" style="endArrow=none;html=1;rounded=0;exitX=0.964;exitY=0.669;exitDx=0;exitDy=0;exitPerimeter=0;" edge="1" parent="1" source="Jq1FWWVzuBtE5Re9_JTs-9" target="Jq1FWWVzuBtE5Re9_JTs-1">
          <mxGeometry width="50" height="50" relative="1" as="geometry">
            <mxPoint x="310" y="150" as="sourcePoint" />
            <mxPoint x="364" y="240" as="targetPoint" />
          </mxGeometry>
        </mxCell>
        <mxCell id="Jq1FWWVzuBtE5Re9_JTs-18" value="" style="endArrow=none;html=1;rounded=0;exitX=1;exitY=0.5;exitDx=0;exitDy=0;entryX=0;entryY=0.5;entryDx=0;entryDy=0;" edge="1" parent="1" source="Jq1FWWVzuBtE5Re9_JTs-8" target="Jq1FWWVzuBtE5Re9_JTs-1">
          <mxGeometry width="50" height="50" relative="1" as="geometry">
            <mxPoint x="196" y="157" as="sourcePoint" />
            <mxPoint x="319" y="240" as="targetPoint" />
          </mxGeometry>
        </mxCell>
        <mxCell id="Jq1FWWVzuBtE5Re9_JTs-19" value="" style="endArrow=none;html=1;rounded=0;exitX=0.796;exitY=0.034;exitDx=0;exitDy=0;entryX=0;entryY=1;entryDx=0;entryDy=0;exitPerimeter=0;" edge="1" parent="1" source="Jq1FWWVzuBtE5Re9_JTs-7" target="Jq1FWWVzuBtE5Re9_JTs-1">
          <mxGeometry width="50" height="50" relative="1" as="geometry">
            <mxPoint x="200" y="270" as="sourcePoint" />
            <mxPoint x="304" y="270" as="targetPoint" />
          </mxGeometry>
        </mxCell>
      </root>
    </mxGraphModel>
  </diagram>
</mxfile>
